<svg xmlns="http://www.w3.org/2000/svg" viewBox="0 0 750 471">
  <rect fill="#fff" width="750" height="471" rx="40"/>
  <path fill="#1434CB" d="M278.2 334.2h-60.5l37.8-233.9h60.5zm161.5-228c-12-4.8-30.8-9.9-54.3-9.9-59.8 0-102 31.8-102.3 77.3-.3 33.6 30 52.3 52.9 63.5s31.4 18.8 31.3 29c-.2 15.7-18.8 22.8-36.2 22.8-24.2 0-37.1-3.6-57-12.3l-7.8-3.7-8.5 52.4c14.2 6.5 40.4 12.2 67.5 12.5 63.6 0 104.9-31.4 105.4-80 .3-26.6-15.9-46.9-50.8-63.6-21.2-10.8-34.2-18-34-29 0-9.7 11-20.1 34.7-20.1 19.8-.3 34.2 4.2 45.4 9l5.4 2.7 8.3-51zm79.5 145.3c5-13.5 24.2-65.5 24.2-65.5-.4.6 5-13.7 8.1-22.6l4.1 20.4s11.6 56.5 14.1 68.3h-50.5zm74.9-147.3h-46.8c-14.5 0-25.4 4.2-31.8 19.5l-90.1 215.2h63.7s10.4-28.9 12.8-35.3h77.8c1.8 8.2 7.3 35.3 7.3 35.3h56.3l-49.2-234.7zm-372.4 0l-59.3 159.6-6.3-32.4c-11-37.3-45.3-77.8-83.7-98l54.3 204.7h64.1l95.3-233.9h-64.4z"/>
  <path fill="#F9A533" d="M146.9 105.9H50.1l-.8 4.8c76 19.4 126.3 66.3 147.2 122.6l-21.2-107.9c-3.7-14.9-14.4-19-28.4-19.5z"/>
</svg>
